<svg preserveAspectRatio="none" width="100%" height="100%" overflow="visible" style="display: block;" viewBox="0 0 1082.75 463.006" fill="none" xmlns="http://www.w3.org/2000/svg">
<g id="Hat_Ribs" opacity="0.72">
<path id="Vector" d="M5.50137 413.795C42.7897 275.71 127.406 146.566 214.89 80.007" stroke="var(--stroke-0, #181A1D)" stroke-width="11" stroke-linecap="round"/>
<path id="Vector_2" d="M103.025 442.605C133.142 259.816 236.403 109.81 329.624 39.2769" stroke="var(--stroke-0, #181A1D)" stroke-width="11" stroke-linecap="round"/>
<path id="Vector_3" d="M219.192 451.545C240.705 248.888 364.043 78.0198 448.659 14.441" stroke="var(--stroke-0, #181A1D)" stroke-width="11" stroke-linecap="round"/>
<path id="Vector_4" d="M345.399 455.519C361.175 240.94 478.777 58.1515 533.275 8.48055" stroke="var(--stroke-0, #181A1D)" stroke-width="11" stroke-linecap="round"/>
<path id="Vector_5" d="M475.908 457.505C483.079 243.92 533.275 77.0262 536.143 5.50008" stroke="var(--stroke-0, #181A1D)" stroke-width="11" stroke-linecap="round"/>
<path id="Vector_6" d="M615.022 457.505C633.666 235.973 622.193 78.0197 615.022 22.3883" stroke="var(--stroke-0, #181A1D)" stroke-width="11" stroke-linecap="round"/>
<path id="Vector_7" d="M742.663 453.532C781.386 246.901 764.176 91.9275 689.599 22.3883" stroke="var(--stroke-0, #181A1D)" stroke-width="11" stroke-linecap="round"/>
<path id="Vector_8" d="M866.001 445.584C924.802 259.815 886.08 121.73 779.951 47.2237" stroke="var(--stroke-0, #181A1D)" stroke-width="11" stroke-linecap="round"/>
<path id="Vector_9" d="M979.302 432.67C1042.41 294.585 1006.55 182.329 884.647 100.869" stroke="var(--stroke-0, #181A1D)" stroke-width="11" stroke-linecap="round"/>
<path id="Vector_10" d="M1061.05 405.848C1096.9 315.446 1075.39 235.973 974.999 158.486" stroke="var(--stroke-0, #181A1D)" stroke-width="11" stroke-linecap="round"/>
</g>
</svg>
